<?xml version="1.0" encoding="UTF-8" standalone="no"?>
<!DOCTYPE svg PUBLIC "-//W3C//DTD SVG 1.1//EN"
 "http://www.w3.org/Graphics/SVG/1.1/DTD/svg11.dtd">
<!-- Generated by graphviz version 2.47.0 (20210316.0004)
 -->
<!-- Title: dependencies Pages: 1 -->
<svg width="2202pt" height="284pt"
 viewBox="0.00 0.00 2202.00 284.00" xmlns="http://www.w3.org/2000/svg" xmlns:xlink="http://www.w3.org/1999/xlink">
<g id="graph0" class="graph" transform="scale(1 1) rotate(0) translate(4 280)">
<title>dependencies</title>
<polygon fill="white" stroke="transparent" points="-4,4 -4,-280 2198,-280 2198,4 -4,4"/>
<text text-anchor="start" x="1076.01" y="-42.4" font-family="Times-12" font-weight="bold" font-size="14.00">Legend</text>
<polygon fill="#ffffb3" stroke="transparent" points="863,-10 863,-30 883,-30 883,-10 863,-10"/>
<text text-anchor="start" x="886.63" y="-15.4" font-family="Times-12" font-size="14.00"> &#160;Declarations</text>
<polygon fill="#8dd3c7" stroke="transparent" points="976,-10 976,-30 996,-30 996,-10 976,-10"/>
<text text-anchor="start" x="999.73" y="-15.4" font-family="Times-12" font-size="14.00"> &#160;Module</text>
<polygon fill="#80b1d3" stroke="transparent" points="1062,-10 1062,-30 1082,-30 1082,-10 1062,-10"/>
<text text-anchor="start" x="1085.78" y="-15.4" font-family="Times-12" font-size="14.00"> &#160;Bootstrap</text>
<polygon fill="#fdb462" stroke="transparent" points="1159,-10 1159,-30 1179,-30 1179,-10 1159,-10"/>
<text text-anchor="start" x="1182.67" y="-15.4" font-family="Times-12" font-size="14.00"> &#160;Providers</text>
<polygon fill="#fb8072" stroke="transparent" points="1255,-10 1255,-30 1275,-30 1275,-10 1255,-10"/>
<text text-anchor="start" x="1278.73" y="-15.4" font-family="Times-12" font-size="14.00"> &#160;Exports</text>
<g id="clust1" class="cluster">
<title>cluster_SharedModule</title>
<polygon fill="none" stroke="black" stroke-dasharray="1,5" points="8,-70 8,-268 2186,-268 2186,-70 8,-70"/>
</g>
<g id="clust17" class="cluster">
<title>cluster_SharedModule_exports</title>
<polygon fill="none" stroke="black" points="16,-208 16,-260 2178,-260 2178,-208 16,-208"/>
</g>
<g id="clust2" class="cluster">
<title>cluster_SharedModule_declarations</title>
<polygon fill="none" stroke="black" points="37,-78 37,-130 2155,-130 2155,-78 37,-78"/>
</g>
<!-- CustomLabelDirective -->
<g id="node1" class="node">
<title>CustomLabelDirective</title>
<polygon fill="#ffffb3" stroke="black" points="2146.52,-122 2003.48,-122 2003.48,-86 2146.52,-86 2146.52,-122"/>
<text text-anchor="middle" x="2075" y="-99.8" font-family="Times,serif" font-size="14.00">CustomLabelDirective</text>
</g>
<!-- SharedModule -->
<g id="node14" class="node">
<title>SharedModule</title>
<polygon fill="#8dd3c7" stroke="black" points="1089.42,-187 1086.42,-191 1065.42,-191 1062.42,-187 990.58,-187 990.58,-151 1089.42,-151 1089.42,-187"/>
<text text-anchor="middle" x="1040" y="-164.8" font-family="Times,serif" font-size="14.00">SharedModule</text>
</g>
<!-- CustomLabelDirective&#45;&gt;SharedModule -->
<g id="edge1" class="edge">
<title>CustomLabelDirective&#45;&gt;SharedModule</title>
<path fill="none" stroke="black" d="M2013.59,-122.17C2013.59,-141.09 2013.59,-168 2013.59,-168 2013.59,-168 1099.28,-168 1099.28,-168"/>
<polygon fill="black" stroke="black" points="1099.28,-164.5 1089.28,-168 1099.28,-171.5 1099.28,-164.5"/>
</g>
<!-- ExerciseFormComponent -->
<g id="node2" class="node">
<title>ExerciseFormComponent</title>
<polygon fill="#ffffb3" stroke="black" points="1984.86,-122 1825.14,-122 1825.14,-86 1984.86,-86 1984.86,-122"/>
<text text-anchor="middle" x="1905" y="-99.8" font-family="Times,serif" font-size="14.00">ExerciseFormComponent</text>
</g>
<!-- ExerciseFormComponent&#45;&gt;SharedModule -->
<g id="edge2" class="edge">
<title>ExerciseFormComponent&#45;&gt;SharedModule</title>
<path fill="none" stroke="black" d="M1833.2,-122.3C1833.2,-140.27 1833.2,-165 1833.2,-165 1833.2,-165 1099.32,-165 1099.32,-165"/>
<polygon fill="black" stroke="black" points="1099.32,-161.5 1089.32,-165 1099.32,-168.5 1099.32,-161.5"/>
</g>
<!-- MachineFormComponent -->
<g id="node3" class="node">
<title>MachineFormComponent</title>
<polygon fill="#ffffb3" stroke="black" points="1807.15,-122 1646.85,-122 1646.85,-86 1807.15,-86 1807.15,-122"/>
<text text-anchor="middle" x="1727" y="-99.8" font-family="Times,serif" font-size="14.00">MachineFormComponent</text>
</g>
<!-- MachineFormComponent&#45;&gt;SharedModule -->
<g id="edge3" class="edge">
<title>MachineFormComponent&#45;&gt;SharedModule</title>
<path fill="none" stroke="black" d="M1652.8,-122.02C1652.8,-139.37 1652.8,-163 1652.8,-163 1652.8,-163 1099.37,-163 1099.37,-163"/>
<polygon fill="black" stroke="black" points="1099.37,-159.5 1089.37,-163 1099.37,-166.5 1099.37,-159.5"/>
</g>
<!-- MachineSelectableComponent -->
<g id="node4" class="node">
<title>MachineSelectableComponent</title>
<polygon fill="#ffffb3" stroke="black" points="1628.84,-122 1441.16,-122 1441.16,-86 1628.84,-86 1628.84,-122"/>
<text text-anchor="middle" x="1535" y="-99.8" font-family="Times,serif" font-size="14.00">MachineSelectableComponent</text>
</g>
<!-- MachineSelectableComponent&#45;&gt;SharedModule -->
<g id="edge4" class="edge">
<title>MachineSelectableComponent&#45;&gt;SharedModule</title>
<path fill="none" stroke="black" d="M1445.21,-122.03C1445.21,-138.4 1445.21,-160 1445.21,-160 1445.21,-160 1099.28,-160 1099.28,-160"/>
<polygon fill="black" stroke="black" points="1099.28,-156.5 1089.28,-160 1099.28,-163.5 1099.28,-156.5"/>
</g>
<!-- MapComponent -->
<g id="node5" class="node">
<title>MapComponent</title>
<polygon fill="#ffffb3" stroke="black" points="1423.49,-122 1316.51,-122 1316.51,-86 1423.49,-86 1423.49,-122"/>
<text text-anchor="middle" x="1370" y="-99.8" font-family="Times,serif" font-size="14.00">MapComponent</text>
</g>
<!-- MapComponent&#45;&gt;SharedModule -->
<g id="edge5" class="edge">
<title>MapComponent&#45;&gt;SharedModule</title>
<path fill="none" stroke="black" d="M1389.25,-122.24C1389.25,-137.57 1389.25,-157 1389.25,-157 1389.25,-157 1099.3,-157 1099.3,-157"/>
<polygon fill="black" stroke="black" points="1099.3,-153.5 1089.3,-157 1099.3,-160.5 1099.3,-153.5"/>
</g>
<!-- MapModuleComponent -->
<g id="node6" class="node">
<title>MapModuleComponent</title>
<polygon fill="#ffffb3" stroke="black" points="1298.04,-122 1147.96,-122 1147.96,-86 1298.04,-86 1298.04,-122"/>
<text text-anchor="middle" x="1223" y="-99.8" font-family="Times,serif" font-size="14.00">MapModuleComponent</text>
</g>
<!-- MapModuleComponent&#45;&gt;SharedModule -->
<g id="edge6" class="edge">
<title>MapModuleComponent&#45;&gt;SharedModule</title>
<path fill="none" stroke="black" d="M1248.51,-122.05C1248.51,-136.37 1248.51,-154 1248.51,-154 1248.51,-154 1099.41,-154 1099.41,-154"/>
<polygon fill="black" stroke="black" points="1099.41,-150.5 1089.41,-154 1099.41,-157.5 1099.41,-150.5"/>
</g>
<!-- PictureSelectableComponent -->
<g id="node7" class="node">
<title>PictureSelectableComponent</title>
<polygon fill="#ffffb3" stroke="black" points="1129.01,-122 950.99,-122 950.99,-86 1129.01,-86 1129.01,-122"/>
<text text-anchor="middle" x="1040" y="-99.8" font-family="Times,serif" font-size="14.00">PictureSelectableComponent</text>
</g>
<!-- PictureSelectableComponent&#45;&gt;SharedModule -->
<g id="edge7" class="edge">
<title>PictureSelectableComponent&#45;&gt;SharedModule</title>
<path fill="none" stroke="black" d="M1040,-122.11C1040,-122.11 1040,-140.99 1040,-140.99"/>
<polygon fill="black" stroke="black" points="1036.5,-140.99 1040,-150.99 1043.5,-140.99 1036.5,-140.99"/>
</g>
<!-- RoleDirective -->
<g id="node8" class="node">
<title>RoleDirective</title>
<polygon fill="#ffffb3" stroke="black" points="932.03,-122 837.97,-122 837.97,-86 932.03,-86 932.03,-122"/>
<text text-anchor="middle" x="885" y="-99.8" font-family="Times,serif" font-size="14.00">RoleDirective</text>
</g>
<!-- RoleDirective&#45;&gt;SharedModule -->
<g id="edge8" class="edge">
<title>RoleDirective&#45;&gt;SharedModule</title>
<path fill="none" stroke="black" d="M899.92,-122.05C899.92,-136.37 899.92,-154 899.92,-154 899.92,-154 980.61,-154 980.61,-154"/>
<polygon fill="black" stroke="black" points="980.61,-157.5 990.61,-154 980.61,-150.5 980.61,-157.5"/>
</g>
<!-- RoleSelectableComponent -->
<g id="node9" class="node">
<title>RoleSelectableComponent</title>
<polygon fill="#ffffb3" stroke="black" points="819.8,-122 654.2,-122 654.2,-86 819.8,-86 819.8,-122"/>
<text text-anchor="middle" x="737" y="-99.8" font-family="Times,serif" font-size="14.00">RoleSelectableComponent</text>
</g>
<!-- RoleSelectableComponent&#45;&gt;SharedModule -->
<g id="edge9" class="edge">
<title>RoleSelectableComponent&#45;&gt;SharedModule</title>
<path fill="none" stroke="black" d="M761.72,-122.24C761.72,-137.57 761.72,-157 761.72,-157 761.72,-157 980.57,-157 980.57,-157"/>
<polygon fill="black" stroke="black" points="980.57,-160.5 990.57,-157 980.57,-153.5 980.57,-160.5"/>
</g>
<!-- RoutingBarComponent -->
<g id="node10" class="node">
<title>RoutingBarComponent</title>
<polygon fill="#ffffb3" stroke="black" points="636.16,-122 489.84,-122 489.84,-86 636.16,-86 636.16,-122"/>
<text text-anchor="middle" x="563" y="-99.8" font-family="Times,serif" font-size="14.00">RoutingBarComponent</text>
</g>
<!-- RoutingBarComponent&#45;&gt;SharedModule -->
<g id="edge10" class="edge">
<title>RoutingBarComponent&#45;&gt;SharedModule</title>
<path fill="none" stroke="black" d="M632.71,-122.03C632.71,-138.4 632.71,-160 632.71,-160 632.71,-160 980.46,-160 980.46,-160"/>
<polygon fill="black" stroke="black" points="980.46,-163.5 990.46,-160 980.46,-156.5 980.46,-163.5"/>
</g>
<!-- ShowPasswordPipe -->
<g id="node11" class="node">
<title>ShowPasswordPipe</title>
<polygon fill="#ffffb3" stroke="black" points="471.43,-122 344.57,-122 344.57,-86 471.43,-86 471.43,-122"/>
<text text-anchor="middle" x="408" y="-99.8" font-family="Times,serif" font-size="14.00">ShowPasswordPipe</text>
</g>
<!-- ShowPasswordPipe&#45;&gt;SharedModule -->
<g id="edge11" class="edge">
<title>ShowPasswordPipe&#45;&gt;SharedModule</title>
<path fill="none" stroke="black" d="M466.09,-122.02C466.09,-139.37 466.09,-163 466.09,-163 466.09,-163 980.57,-163 980.57,-163"/>
<polygon fill="black" stroke="black" points="980.57,-166.5 990.57,-163 980.57,-159.5 980.57,-166.5"/>
</g>
<!-- ToolbarComponent -->
<g id="node12" class="node">
<title>ToolbarComponent</title>
<polygon fill="#ffffb3" stroke="black" points="326.65,-122 201.35,-122 201.35,-86 326.65,-86 326.65,-122"/>
<text text-anchor="middle" x="264" y="-99.8" font-family="Times,serif" font-size="14.00">ToolbarComponent</text>
</g>
<!-- ToolbarComponent&#45;&gt;SharedModule -->
<g id="edge12" class="edge">
<title>ToolbarComponent&#45;&gt;SharedModule</title>
<path fill="none" stroke="black" d="M319.7,-122.3C319.7,-140.27 319.7,-165 319.7,-165 319.7,-165 980.77,-165 980.77,-165"/>
<polygon fill="black" stroke="black" points="980.77,-168.5 990.77,-165 980.77,-161.5 980.77,-168.5"/>
</g>
<!-- UserFormComponent -->
<g id="node13" class="node">
<title>UserFormComponent</title>
<polygon fill="#ffffb3" stroke="black" points="183.09,-122 44.91,-122 44.91,-86 183.09,-86 183.09,-122"/>
<text text-anchor="middle" x="114" y="-99.8" font-family="Times,serif" font-size="14.00">UserFormComponent</text>
</g>
<!-- UserFormComponent&#45;&gt;SharedModule -->
<g id="edge13" class="edge">
<title>UserFormComponent&#45;&gt;SharedModule</title>
<path fill="none" stroke="black" d="M174.42,-122.17C174.42,-141.09 174.42,-168 174.42,-168 174.42,-168 980.67,-168 980.67,-168"/>
<polygon fill="black" stroke="black" points="980.67,-171.5 990.67,-168 980.67,-164.5 980.67,-171.5"/>
</g>
<!-- CustomLabelDirective  -->
<g id="node15" class="node">
<title>CustomLabelDirective </title>
<polygon fill="#fb8072" stroke="black" points="2169.52,-252 2022.48,-252 2022.48,-216 2169.52,-216 2169.52,-252"/>
<text text-anchor="middle" x="2096" y="-229.8" font-family="Times,serif" font-size="14.00">CustomLabelDirective </text>
</g>
<!-- SharedModule&#45;&gt;CustomLabelDirective  -->
<g id="edge14" class="edge">
<title>SharedModule&#45;&gt;CustomLabelDirective </title>
<path fill="none" stroke="black" stroke-dasharray="5,2" d="M1089.33,-171C1296.4,-171 2084.62,-171 2084.62,-171 2084.62,-171 2084.62,-205.78 2084.62,-205.78"/>
<polygon fill="black" stroke="black" points="2081.13,-205.78 2084.62,-215.78 2088.13,-205.78 2081.13,-205.78"/>
</g>
<!-- ExerciseFormComponent  -->
<g id="node16" class="node">
<title>ExerciseFormComponent </title>
<polygon fill="#fb8072" stroke="black" points="2004.86,-252 1841.14,-252 1841.14,-216 2004.86,-216 2004.86,-252"/>
<text text-anchor="middle" x="1923" y="-229.8" font-family="Times,serif" font-size="14.00">ExerciseFormComponent </text>
</g>
<!-- SharedModule&#45;&gt;ExerciseFormComponent  -->
<g id="edge15" class="edge">
<title>SharedModule&#45;&gt;ExerciseFormComponent </title>
<path fill="none" stroke="black" stroke-dasharray="5,2" d="M1089.44,-174C1274.15,-174 1913.12,-174 1913.12,-174 1913.12,-174 1913.12,-206 1913.12,-206"/>
<polygon fill="black" stroke="black" points="1909.63,-206 1913.12,-216 1916.63,-206 1909.63,-206"/>
</g>
<!-- MachineFormComponent  -->
<g id="node17" class="node">
<title>MachineFormComponent </title>
<polygon fill="#fb8072" stroke="black" points="1823.15,-252 1658.85,-252 1658.85,-216 1823.15,-216 1823.15,-252"/>
<text text-anchor="middle" x="1741" y="-229.8" font-family="Times,serif" font-size="14.00">MachineFormComponent </text>
</g>
<!-- SharedModule&#45;&gt;MachineFormComponent  -->
<g id="edge16" class="edge">
<title>SharedModule&#45;&gt;MachineFormComponent </title>
<path fill="none" stroke="black" stroke-dasharray="5,2" d="M1089.29,-176C1247.64,-176 1733.12,-176 1733.12,-176 1733.12,-176 1733.12,-205.97 1733.12,-205.97"/>
<polygon fill="black" stroke="black" points="1729.63,-205.97 1733.12,-215.97 1736.63,-205.97 1729.63,-205.97"/>
</g>
<!-- MachineSelectableComponent  -->
<g id="node18" class="node">
<title>MachineSelectableComponent </title>
<polygon fill="#fb8072" stroke="black" points="1640.84,-252 1449.16,-252 1449.16,-216 1640.84,-216 1640.84,-252"/>
<text text-anchor="middle" x="1545" y="-229.8" font-family="Times,serif" font-size="14.00">MachineSelectableComponent </text>
</g>
<!-- SharedModule&#45;&gt;MachineSelectableComponent  -->
<g id="edge17" class="edge">
<title>SharedModule&#45;&gt;MachineSelectableComponent </title>
<path fill="none" stroke="black" stroke-dasharray="5,2" d="M1089.22,-179C1215.15,-179 1539.12,-179 1539.12,-179 1539.12,-179 1539.12,-205.99 1539.12,-205.99"/>
<polygon fill="black" stroke="black" points="1535.63,-205.99 1539.12,-215.99 1542.63,-205.99 1535.63,-205.99"/>
</g>
<!-- MapComponent  -->
<g id="node19" class="node">
<title>MapComponent </title>
<polygon fill="#fb8072" stroke="black" points="1431.49,-252 1320.51,-252 1320.51,-216 1431.49,-216 1431.49,-252"/>
<text text-anchor="middle" x="1376" y="-229.8" font-family="Times,serif" font-size="14.00">MapComponent </text>
</g>
<!-- SharedModule&#45;&gt;MapComponent  -->
<g id="edge18" class="edge">
<title>SharedModule&#45;&gt;MapComponent </title>
<path fill="none" stroke="black" stroke-dasharray="5,2" d="M1089.22,-182C1177.81,-182 1355,-182 1355,-182 1355,-182 1355,-205.81 1355,-205.81"/>
<polygon fill="black" stroke="black" points="1351.5,-205.81 1355,-215.81 1358.5,-205.81 1351.5,-205.81"/>
</g>
<!-- MapModuleComponent  -->
<g id="node20" class="node">
<title>MapModuleComponent </title>
<polygon fill="#fb8072" stroke="black" points="1303.04,-252 1148.96,-252 1148.96,-216 1303.04,-216 1303.04,-252"/>
<text text-anchor="middle" x="1226" y="-229.8" font-family="Times,serif" font-size="14.00">MapModuleComponent </text>
</g>
<!-- SharedModule&#45;&gt;MapModuleComponent  -->
<g id="edge19" class="edge">
<title>SharedModule&#45;&gt;MapModuleComponent </title>
<path fill="none" stroke="black" stroke-dasharray="5,2" d="M1089.36,-185C1135.96,-185 1198.74,-185 1198.74,-185 1198.74,-185 1198.74,-205.75 1198.74,-205.75"/>
<polygon fill="black" stroke="black" points="1195.24,-205.75 1198.74,-215.75 1202.24,-205.75 1195.24,-205.75"/>
</g>
<!-- PictureSelectableComponent  -->
<g id="node21" class="node">
<title>PictureSelectableComponent </title>
<polygon fill="#fb8072" stroke="black" points="1131.01,-252 948.99,-252 948.99,-216 1131.01,-216 1131.01,-252"/>
<text text-anchor="middle" x="1040" y="-229.8" font-family="Times,serif" font-size="14.00">PictureSelectableComponent </text>
</g>
<!-- SharedModule&#45;&gt;PictureSelectableComponent  -->
<g id="edge20" class="edge">
<title>SharedModule&#45;&gt;PictureSelectableComponent </title>
<path fill="none" stroke="black" stroke-dasharray="5,2" d="M1040,-187.11C1040,-187.11 1040,-205.99 1040,-205.99"/>
<polygon fill="black" stroke="black" points="1036.5,-205.99 1040,-215.99 1043.5,-205.99 1036.5,-205.99"/>
</g>
<!-- RoleDirective  -->
<g id="node22" class="node">
<title>RoleDirective </title>
<polygon fill="#fb8072" stroke="black" points="931.02,-252 832.98,-252 832.98,-216 931.02,-216 931.02,-252"/>
<text text-anchor="middle" x="882" y="-229.8" font-family="Times,serif" font-size="14.00">RoleDirective </text>
</g>
<!-- SharedModule&#45;&gt;RoleDirective  -->
<g id="edge21" class="edge">
<title>SharedModule&#45;&gt;RoleDirective </title>
<path fill="none" stroke="black" stroke-dasharray="5,2" d="M990.49,-185C939.94,-185 868.83,-185 868.83,-185 868.83,-185 868.83,-205.75 868.83,-205.75"/>
<polygon fill="black" stroke="black" points="865.33,-205.75 868.83,-215.75 872.33,-205.75 865.33,-205.75"/>
</g>
<!-- RoleSelectableComponent  -->
<g id="node23" class="node">
<title>RoleSelectableComponent </title>
<polygon fill="#fb8072" stroke="black" points="815.3,-252 646.7,-252 646.7,-216 815.3,-216 815.3,-252"/>
<text text-anchor="middle" x="731" y="-229.8" font-family="Times,serif" font-size="14.00">RoleSelectableComponent </text>
</g>
<!-- SharedModule&#45;&gt;RoleSelectableComponent  -->
<g id="edge22" class="edge">
<title>SharedModule&#45;&gt;RoleSelectableComponent </title>
<path fill="none" stroke="black" stroke-dasharray="5,2" d="M990.66,-182C898.18,-182 708.03,-182 708.03,-182 708.03,-182 708.03,-205.81 708.03,-205.81"/>
<polygon fill="black" stroke="black" points="704.53,-205.81 708.03,-215.81 711.53,-205.81 704.53,-205.81"/>
</g>
<!-- RoutingBarComponent  -->
<g id="node24" class="node">
<title>RoutingBarComponent </title>
<polygon fill="#fb8072" stroke="black" points="629.16,-252 478.84,-252 478.84,-216 629.16,-216 629.16,-252"/>
<text text-anchor="middle" x="554" y="-229.8" font-family="Times,serif" font-size="14.00">RoutingBarComponent </text>
</g>
<!-- SharedModule&#45;&gt;RoutingBarComponent  -->
<g id="edge23" class="edge">
<title>SharedModule&#45;&gt;RoutingBarComponent </title>
<path fill="none" stroke="black" stroke-dasharray="5,2" d="M990.37,-179C867.58,-179 559.38,-179 559.38,-179 559.38,-179 559.38,-205.99 559.38,-205.99"/>
<polygon fill="black" stroke="black" points="555.88,-205.99 559.38,-215.99 562.88,-205.99 555.88,-205.99"/>
</g>
<!-- ShowPasswordPipe  -->
<g id="node25" class="node">
<title>ShowPasswordPipe </title>
<polygon fill="#fb8072" stroke="black" points="460.93,-252 331.07,-252 331.07,-216 460.93,-216 460.93,-252"/>
<text text-anchor="middle" x="396" y="-229.8" font-family="Times,serif" font-size="14.00">ShowPasswordPipe </text>
</g>
<!-- SharedModule&#45;&gt;ShowPasswordPipe  -->
<g id="edge24" class="edge">
<title>SharedModule&#45;&gt;ShowPasswordPipe </title>
<path fill="none" stroke="black" stroke-dasharray="5,2" d="M990.54,-176C840.84,-176 402.88,-176 402.88,-176 402.88,-176 402.88,-205.97 402.88,-205.97"/>
<polygon fill="black" stroke="black" points="399.38,-205.97 402.88,-215.97 406.38,-205.97 399.38,-205.97"/>
</g>
<!-- ToolbarComponent  -->
<g id="node26" class="node">
<title>ToolbarComponent </title>
<polygon fill="#fb8072" stroke="black" points="312.65,-252 183.35,-252 183.35,-216 312.65,-216 312.65,-252"/>
<text text-anchor="middle" x="248" y="-229.8" font-family="Times,serif" font-size="14.00">ToolbarComponent </text>
</g>
<!-- SharedModule&#45;&gt;ToolbarComponent  -->
<g id="edge25" class="edge">
<title>SharedModule&#45;&gt;ToolbarComponent </title>
<path fill="none" stroke="black" stroke-dasharray="5,2" d="M990.72,-174C818.92,-174 256.88,-174 256.88,-174 256.88,-174 256.88,-206 256.88,-206"/>
<polygon fill="black" stroke="black" points="253.38,-206 256.88,-216 260.38,-206 253.38,-206"/>
</g>
<!-- UserFormComponent  -->
<g id="node27" class="node">
<title>UserFormComponent </title>
<polygon fill="#fb8072" stroke="black" points="165.59,-252 24.41,-252 24.41,-216 165.59,-216 165.59,-252"/>
<text text-anchor="middle" x="95" y="-229.8" font-family="Times,serif" font-size="14.00">UserFormComponent </text>
</g>
<!-- SharedModule&#45;&gt;UserFormComponent  -->
<g id="edge26" class="edge">
<title>SharedModule&#45;&gt;UserFormComponent </title>
<path fill="none" stroke="black" stroke-dasharray="5,2" d="M990.74,-171C797.97,-171 105.38,-171 105.38,-171 105.38,-171 105.38,-205.78 105.38,-205.78"/>
<polygon fill="black" stroke="black" points="101.88,-205.78 105.38,-215.78 108.88,-205.78 101.88,-205.78"/>
</g>
</g>
</svg>
