<?xml version="1.0" encoding="UTF-8" standalone="no"?>
<!DOCTYPE svg PUBLIC "-//W3C//DTD SVG 1.1//EN"
 "http://www.w3.org/Graphics/SVG/1.1/DTD/svg11.dtd">
<!-- Generated by graphviz version 2.47.0 (20210316.0004)
 -->
<!-- Title: dependencies Pages: 1 -->
<svg width="504pt" height="211pt"
 viewBox="0.00 0.00 504.00 211.00" xmlns="http://www.w3.org/2000/svg" xmlns:xlink="http://www.w3.org/1999/xlink">
<g id="graph0" class="graph" transform="scale(1 1) rotate(0) translate(4 207)">
<title>dependencies</title>
<polygon fill="white" stroke="transparent" points="-4,4 -4,-207 500,-207 500,4 -4,4"/>
<text text-anchor="start" x="227.01" y="-42.4" font-family="Times-12" font-weight="bold" font-size="14.00">Legend</text>
<polygon fill="#ffffb3" stroke="transparent" points="14,-10 14,-30 34,-30 34,-10 14,-10"/>
<text text-anchor="start" x="37.63" y="-15.4" font-family="Times-12" font-size="14.00"> &#160;Declarations</text>
<polygon fill="#8dd3c7" stroke="transparent" points="127,-10 127,-30 147,-30 147,-10 127,-10"/>
<text text-anchor="start" x="150.73" y="-15.4" font-family="Times-12" font-size="14.00"> &#160;Module</text>
<polygon fill="#80b1d3" stroke="transparent" points="213,-10 213,-30 233,-30 233,-10 213,-10"/>
<text text-anchor="start" x="236.78" y="-15.4" font-family="Times-12" font-size="14.00"> &#160;Bootstrap</text>
<polygon fill="#fdb462" stroke="transparent" points="310,-10 310,-30 330,-30 330,-10 310,-10"/>
<text text-anchor="start" x="333.67" y="-15.4" font-family="Times-12" font-size="14.00"> &#160;Providers</text>
<polygon fill="#fb8072" stroke="transparent" points="406,-10 406,-30 426,-30 426,-10 406,-10"/>
<text text-anchor="start" x="429.73" y="-15.4" font-family="Times-12" font-size="14.00"> &#160;Exports</text>
<g id="clust1" class="cluster">
<title>cluster_UserListPageModule</title>
<polygon fill="none" stroke="black" stroke-dasharray="1,5" points="26,-70 26,-195 470,-195 470,-70 26,-70"/>
</g>
<g id="clust4" class="cluster">
<title>cluster_UserListPageModule_imports</title>
<polygon fill="none" stroke="black" points="150,-78 150,-130 462,-130 462,-78 150,-78"/>
</g>
<g id="clust2" class="cluster">
<title>cluster_UserListPageModule_declarations</title>
<polygon fill="none" stroke="black" points="34,-78 34,-130 142,-130 142,-78 34,-78"/>
</g>
<!-- UserListPage -->
<g id="node1" class="node">
<title>UserListPage</title>
<polygon fill="#ffffb3" stroke="black" points="133.92,-122 42.08,-122 42.08,-86 133.92,-86 133.92,-122"/>
<text text-anchor="middle" x="88" y="-99.8" font-family="Times,serif" font-size="14.00">UserListPage</text>
</g>
<!-- UserListPageModule -->
<g id="node2" class="node">
<title>UserListPageModule</title>
<polygon fill="#8dd3c7" stroke="black" points="315.47,-187 312.47,-191 291.47,-191 288.47,-187 180.53,-187 180.53,-151 315.47,-151 315.47,-187"/>
<text text-anchor="middle" x="248" y="-164.8" font-family="Times,serif" font-size="14.00">UserListPageModule</text>
</g>
<!-- UserListPage&#45;&gt;UserListPageModule -->
<g id="edge1" class="edge">
<title>UserListPage&#45;&gt;UserListPageModule</title>
<path fill="none" stroke="black" d="M88,-122.11C88,-141.34 88,-169 88,-169 88,-169 170.15,-169 170.15,-169"/>
<polygon fill="black" stroke="black" points="170.15,-172.5 180.15,-169 170.15,-165.5 170.15,-172.5"/>
</g>
<!-- SharedModule -->
<g id="node3" class="node">
<title>SharedModule</title>
<polygon fill="#8dd3c7" stroke="black" points="454.42,-122 451.42,-126 430.42,-126 427.42,-122 355.58,-122 355.58,-86 454.42,-86 454.42,-122"/>
<text text-anchor="middle" x="405" y="-99.8" font-family="Times,serif" font-size="14.00">SharedModule</text>
</g>
<!-- SharedModule&#45;&gt;UserListPageModule -->
<g id="edge2" class="edge">
<title>SharedModule&#45;&gt;UserListPageModule</title>
<path fill="none" stroke="black" d="M405,-122.11C405,-141.34 405,-169 405,-169 405,-169 325.49,-169 325.49,-169"/>
<polygon fill="black" stroke="black" points="325.49,-165.5 315.49,-169 325.49,-172.5 325.49,-165.5"/>
</g>
<!-- UserListPageRoutingModule -->
<g id="node4" class="node">
<title>UserListPageRoutingModule</title>
<polygon fill="#8dd3c7" stroke="black" points="338.08,-122 335.08,-126 314.08,-126 311.08,-122 157.92,-122 157.92,-86 338.08,-86 338.08,-122"/>
<text text-anchor="middle" x="248" y="-99.8" font-family="Times,serif" font-size="14.00">UserListPageRoutingModule</text>
</g>
<!-- UserListPageRoutingModule&#45;&gt;UserListPageModule -->
<g id="edge3" class="edge">
<title>UserListPageRoutingModule&#45;&gt;UserListPageModule</title>
<path fill="none" stroke="black" d="M248,-122.11C248,-122.11 248,-140.99 248,-140.99"/>
<polygon fill="black" stroke="black" points="244.5,-140.99 248,-150.99 251.5,-140.99 244.5,-140.99"/>
</g>
</g>
</svg>
