<?xml version="1.0" encoding="UTF-8" standalone="no"?>
<!DOCTYPE svg PUBLIC "-//W3C//DTD SVG 1.1//EN"
 "http://www.w3.org/Graphics/SVG/1.1/DTD/svg11.dtd">
<!-- Generated by graphviz version 2.47.0 (20210316.0004)
 -->
<!-- Title: dependencies Pages: 1 -->
<svg width="504pt" height="211pt"
 viewBox="0.00 0.00 504.00 211.00" xmlns="http://www.w3.org/2000/svg" xmlns:xlink="http://www.w3.org/1999/xlink">
<g id="graph0" class="graph" transform="scale(1 1) rotate(0) translate(4 207)">
<title>dependencies</title>
<polygon fill="white" stroke="transparent" points="-4,4 -4,-207 500,-207 500,4 -4,4"/>
<text text-anchor="start" x="227.01" y="-42.4" font-family="Times-12" font-weight="bold" font-size="14.00">Legend</text>
<polygon fill="#ffffb3" stroke="transparent" points="14,-10 14,-30 34,-30 34,-10 14,-10"/>
<text text-anchor="start" x="37.63" y="-15.4" font-family="Times-12" font-size="14.00"> &#160;Declarations</text>
<polygon fill="#8dd3c7" stroke="transparent" points="127,-10 127,-30 147,-30 147,-10 127,-10"/>
<text text-anchor="start" x="150.73" y="-15.4" font-family="Times-12" font-size="14.00"> &#160;Module</text>
<polygon fill="#80b1d3" stroke="transparent" points="213,-10 213,-30 233,-30 233,-10 213,-10"/>
<text text-anchor="start" x="236.78" y="-15.4" font-family="Times-12" font-size="14.00"> &#160;Bootstrap</text>
<polygon fill="#fdb462" stroke="transparent" points="310,-10 310,-30 330,-30 330,-10 310,-10"/>
<text text-anchor="start" x="333.67" y="-15.4" font-family="Times-12" font-size="14.00"> &#160;Providers</text>
<polygon fill="#fb8072" stroke="transparent" points="406,-10 406,-30 426,-30 426,-10 406,-10"/>
<text text-anchor="start" x="429.73" y="-15.4" font-family="Times-12" font-size="14.00"> &#160;Exports</text>
<g id="clust1" class="cluster">
<title>cluster_ExercisePageModule</title>
<polygon fill="none" stroke="black" stroke-dasharray="1,5" points="26,-70 26,-195 470,-195 470,-70 26,-70"/>
</g>
<g id="clust4" class="cluster">
<title>cluster_ExercisePageModule_imports</title>
<polygon fill="none" stroke="black" points="150,-78 150,-130 462,-130 462,-78 150,-78"/>
</g>
<g id="clust2" class="cluster">
<title>cluster_ExercisePageModule_declarations</title>
<polygon fill="none" stroke="black" points="34,-78 34,-130 142,-130 142,-78 34,-78"/>
</g>
<!-- ExercisePage -->
<g id="node1" class="node">
<title>ExercisePage</title>
<polygon fill="#ffffb3" stroke="black" points="133.9,-122 42.1,-122 42.1,-86 133.9,-86 133.9,-122"/>
<text text-anchor="middle" x="88" y="-99.8" font-family="Times,serif" font-size="14.00">ExercisePage</text>
</g>
<!-- ExercisePageModule -->
<g id="node2" class="node">
<title>ExercisePageModule</title>
<polygon fill="#8dd3c7" stroke="black" points="274.45,-187 271.45,-191 250.45,-191 247.45,-187 139.55,-187 139.55,-151 274.45,-151 274.45,-187"/>
<text text-anchor="middle" x="207" y="-164.8" font-family="Times,serif" font-size="14.00">ExercisePageModule</text>
</g>
<!-- ExercisePage&#45;&gt;ExercisePageModule -->
<g id="edge1" class="edge">
<title>ExercisePage&#45;&gt;ExercisePageModule</title>
<path fill="none" stroke="black" d="M133.97,-104C142.43,-104 148.66,-104 148.66,-104 148.66,-104 148.66,-140.89 148.66,-140.89"/>
<polygon fill="black" stroke="black" points="145.16,-140.89 148.66,-150.89 152.16,-140.89 145.16,-140.89"/>
</g>
<!-- ExercisePageRoutingModule -->
<g id="node3" class="node">
<title>ExercisePageRoutingModule</title>
<polygon fill="#8dd3c7" stroke="black" points="454.07,-122 451.07,-126 430.07,-126 427.07,-122 273.93,-122 273.93,-86 454.07,-86 454.07,-122"/>
<text text-anchor="middle" x="364" y="-99.8" font-family="Times,serif" font-size="14.00">ExercisePageRoutingModule</text>
</g>
<!-- ExercisePageRoutingModule&#45;&gt;ExercisePageModule -->
<g id="edge2" class="edge">
<title>ExercisePageRoutingModule&#45;&gt;ExercisePageModule</title>
<path fill="none" stroke="black" d="M273.87,-104C268.42,-104 265.09,-104 265.09,-104 265.09,-104 265.09,-140.89 265.09,-140.89"/>
<polygon fill="black" stroke="black" points="261.59,-140.89 265.09,-150.89 268.59,-140.89 261.59,-140.89"/>
</g>
<!-- SharedModule -->
<g id="node4" class="node">
<title>SharedModule</title>
<polygon fill="#8dd3c7" stroke="black" points="256.42,-122 253.42,-126 232.42,-126 229.42,-122 157.58,-122 157.58,-86 256.42,-86 256.42,-122"/>
<text text-anchor="middle" x="207" y="-99.8" font-family="Times,serif" font-size="14.00">SharedModule</text>
</g>
<!-- SharedModule&#45;&gt;ExercisePageModule -->
<g id="edge3" class="edge">
<title>SharedModule&#45;&gt;ExercisePageModule</title>
<path fill="none" stroke="black" d="M207,-122.11C207,-122.11 207,-140.99 207,-140.99"/>
<polygon fill="black" stroke="black" points="203.5,-140.99 207,-150.99 210.5,-140.99 203.5,-140.99"/>
</g>
</g>
</svg>
