<?xml version="1.0" encoding="UTF-8" standalone="no"?>
<!DOCTYPE svg PUBLIC "-//W3C//DTD SVG 1.1//EN"
 "http://www.w3.org/Graphics/SVG/1.1/DTD/svg11.dtd">
<!-- Generated by graphviz version 2.47.0 (20210316.0004)
 -->
<!-- Title: dependencies Pages: 1 -->
<svg width="789pt" height="211pt"
 viewBox="0.00 0.00 789.00 211.00" xmlns="http://www.w3.org/2000/svg" xmlns:xlink="http://www.w3.org/1999/xlink">
<g id="graph0" class="graph" transform="scale(1 1) rotate(0) translate(4 207)">
<title>dependencies</title>
<polygon fill="white" stroke="transparent" points="-4,4 -4,-207 785,-207 785,4 -4,4"/>
<text text-anchor="start" x="369.51" y="-42.4" font-family="Times-12" font-weight="bold" font-size="14.00">Legend</text>
<polygon fill="#ffffb3" stroke="transparent" points="156.5,-10 156.5,-30 176.5,-30 176.5,-10 156.5,-10"/>
<text text-anchor="start" x="180.13" y="-15.4" font-family="Times-12" font-size="14.00"> &#160;Declarations</text>
<polygon fill="#8dd3c7" stroke="transparent" points="269.5,-10 269.5,-30 289.5,-30 289.5,-10 269.5,-10"/>
<text text-anchor="start" x="293.23" y="-15.4" font-family="Times-12" font-size="14.00"> &#160;Module</text>
<polygon fill="#80b1d3" stroke="transparent" points="355.5,-10 355.5,-30 375.5,-30 375.5,-10 355.5,-10"/>
<text text-anchor="start" x="379.28" y="-15.4" font-family="Times-12" font-size="14.00"> &#160;Bootstrap</text>
<polygon fill="#fdb462" stroke="transparent" points="452.5,-10 452.5,-30 472.5,-30 472.5,-10 452.5,-10"/>
<text text-anchor="start" x="476.17" y="-15.4" font-family="Times-12" font-size="14.00"> &#160;Providers</text>
<polygon fill="#fb8072" stroke="transparent" points="548.5,-10 548.5,-30 568.5,-30 568.5,-10 548.5,-10"/>
<text text-anchor="start" x="572.23" y="-15.4" font-family="Times-12" font-size="14.00"> &#160;Exports</text>
<g id="clust1" class="cluster">
<title>cluster_BarcodeScannerPageModule</title>
<polygon fill="none" stroke="black" stroke-dasharray="1,5" points="8,-70 8,-195 773,-195 773,-70 8,-70"/>
</g>
<g id="clust5" class="cluster">
<title>cluster_BarcodeScannerPageModule_imports</title>
<polygon fill="none" stroke="black" points="409,-78 409,-130 765,-130 765,-78 409,-78"/>
</g>
<g id="clust2" class="cluster">
<title>cluster_BarcodeScannerPageModule_declarations</title>
<polygon fill="none" stroke="black" points="16,-78 16,-130 401,-130 401,-78 16,-78"/>
</g>
<!-- BarcodeScannerPage -->
<g id="node1" class="node">
<title>BarcodeScannerPage</title>
<polygon fill="#ffffb3" stroke="black" points="393.44,-122 258.56,-122 258.56,-86 393.44,-86 393.44,-122"/>
<text text-anchor="middle" x="326" y="-99.8" font-family="Times,serif" font-size="14.00">BarcodeScannerPage</text>
</g>
<!-- BarcodeScannerPageModule -->
<g id="node3" class="node">
<title>BarcodeScannerPageModule</title>
<polygon fill="#8dd3c7" stroke="black" points="485.49,-187 482.49,-191 461.49,-191 458.49,-187 306.51,-187 306.51,-151 485.49,-151 485.49,-187"/>
<text text-anchor="middle" x="396" y="-164.8" font-family="Times,serif" font-size="14.00">BarcodeScannerPageModule</text>
</g>
<!-- BarcodeScannerPage&#45;&gt;BarcodeScannerPageModule -->
<g id="edge1" class="edge">
<title>BarcodeScannerPage&#45;&gt;BarcodeScannerPageModule</title>
<path fill="none" stroke="black" d="M350.11,-122.11C350.11,-122.11 350.11,-140.99 350.11,-140.99"/>
<polygon fill="black" stroke="black" points="346.61,-140.99 350.11,-150.99 353.61,-140.99 346.61,-140.99"/>
</g>
<!-- BarcodeScanningModalComponent -->
<g id="node2" class="node">
<title>BarcodeScanningModalComponent</title>
<polygon fill="#ffffb3" stroke="black" points="240.13,-122 23.87,-122 23.87,-86 240.13,-86 240.13,-122"/>
<text text-anchor="middle" x="132" y="-99.8" font-family="Times,serif" font-size="14.00">BarcodeScanningModalComponent</text>
</g>
<!-- BarcodeScanningModalComponent&#45;&gt;BarcodeScannerPageModule -->
<g id="edge2" class="edge">
<title>BarcodeScanningModalComponent&#45;&gt;BarcodeScannerPageModule</title>
<path fill="none" stroke="black" d="M132,-122.11C132,-141.34 132,-169 132,-169 132,-169 296.62,-169 296.62,-169"/>
<polygon fill="black" stroke="black" points="296.62,-172.5 306.62,-169 296.62,-165.5 296.62,-172.5"/>
</g>
<!-- BarcodeScannerPageRoutingModule -->
<g id="node4" class="node">
<title>BarcodeScannerPageRoutingModule</title>
<polygon fill="#8dd3c7" stroke="black" points="756.61,-122 753.61,-126 732.61,-126 729.61,-122 533.39,-122 533.39,-86 756.61,-86 756.61,-122"/>
<text text-anchor="middle" x="645" y="-99.8" font-family="Times,serif" font-size="14.00">BarcodeScannerPageRoutingModule</text>
</g>
<!-- BarcodeScannerPageRoutingModule&#45;&gt;BarcodeScannerPageModule -->
<g id="edge3" class="edge">
<title>BarcodeScannerPageRoutingModule&#45;&gt;BarcodeScannerPageModule</title>
<path fill="none" stroke="black" d="M645,-122.11C645,-141.34 645,-169 645,-169 645,-169 495.54,-169 495.54,-169"/>
<polygon fill="black" stroke="black" points="495.54,-165.5 485.54,-169 495.54,-172.5 495.54,-165.5"/>
</g>
<!-- SharedModule -->
<g id="node5" class="node">
<title>SharedModule</title>
<polygon fill="#8dd3c7" stroke="black" points="515.42,-122 512.42,-126 491.42,-126 488.42,-122 416.58,-122 416.58,-86 515.42,-86 515.42,-122"/>
<text text-anchor="middle" x="466" y="-99.8" font-family="Times,serif" font-size="14.00">SharedModule</text>
</g>
<!-- SharedModule&#45;&gt;BarcodeScannerPageModule -->
<g id="edge4" class="edge">
<title>SharedModule&#45;&gt;BarcodeScannerPageModule</title>
<path fill="none" stroke="black" d="M451.02,-122.11C451.02,-122.11 451.02,-140.99 451.02,-140.99"/>
<polygon fill="black" stroke="black" points="447.52,-140.99 451.02,-150.99 454.52,-140.99 447.52,-140.99"/>
</g>
</g>
</svg>
