<?xml version="1.0" encoding="UTF-8" standalone="no"?>
<!DOCTYPE svg PUBLIC "-//W3C//DTD SVG 1.1//EN"
 "http://www.w3.org/Graphics/SVG/1.1/DTD/svg11.dtd">
<!-- Generated by graphviz version 2.47.0 (20210316.0004)
 -->
<!-- Title: dependencies Pages: 1 -->
<svg width="548pt" height="211pt"
 viewBox="0.00 0.00 548.00 211.00" xmlns="http://www.w3.org/2000/svg" xmlns:xlink="http://www.w3.org/1999/xlink">
<g id="graph0" class="graph" transform="scale(1 1) rotate(0) translate(4 207)">
<title>dependencies</title>
<polygon fill="white" stroke="transparent" points="-4,4 -4,-207 544,-207 544,4 -4,4"/>
<text text-anchor="start" x="249.01" y="-42.4" font-family="Times-12" font-weight="bold" font-size="14.00">Legend</text>
<polygon fill="#ffffb3" stroke="transparent" points="36,-10 36,-30 56,-30 56,-10 36,-10"/>
<text text-anchor="start" x="59.63" y="-15.4" font-family="Times-12" font-size="14.00"> &#160;Declarations</text>
<polygon fill="#8dd3c7" stroke="transparent" points="149,-10 149,-30 169,-30 169,-10 149,-10"/>
<text text-anchor="start" x="172.73" y="-15.4" font-family="Times-12" font-size="14.00"> &#160;Module</text>
<polygon fill="#80b1d3" stroke="transparent" points="235,-10 235,-30 255,-30 255,-10 235,-10"/>
<text text-anchor="start" x="258.78" y="-15.4" font-family="Times-12" font-size="14.00"> &#160;Bootstrap</text>
<polygon fill="#fdb462" stroke="transparent" points="332,-10 332,-30 352,-30 352,-10 332,-10"/>
<text text-anchor="start" x="355.67" y="-15.4" font-family="Times-12" font-size="14.00"> &#160;Providers</text>
<polygon fill="#fb8072" stroke="transparent" points="428,-10 428,-30 448,-30 448,-10 428,-10"/>
<text text-anchor="start" x="451.73" y="-15.4" font-family="Times-12" font-size="14.00"> &#160;Exports</text>
<g id="clust1" class="cluster">
<title>cluster_MachineDetailsPageModule</title>
<polygon fill="none" stroke="black" stroke-dasharray="1,5" points="8,-70 8,-195 532,-195 532,-70 8,-70"/>
</g>
<g id="clust2" class="cluster">
<title>cluster_MachineDetailsPageModule_declarations</title>
<polygon fill="none" stroke="black" points="376,-78 376,-130 524,-130 524,-78 376,-78"/>
</g>
<g id="clust4" class="cluster">
<title>cluster_MachineDetailsPageModule_imports</title>
<polygon fill="none" stroke="black" points="16,-78 16,-130 368,-130 368,-78 16,-78"/>
</g>
<!-- MachineDetailsPage -->
<g id="node1" class="node">
<title>MachineDetailsPage</title>
<polygon fill="#ffffb3" stroke="black" points="515.84,-122 384.16,-122 384.16,-86 515.84,-86 515.84,-122"/>
<text text-anchor="middle" x="450" y="-99.8" font-family="Times,serif" font-size="14.00">MachineDetailsPage</text>
</g>
<!-- MachineDetailsPageModule -->
<g id="node2" class="node">
<title>MachineDetailsPageModule</title>
<polygon fill="#8dd3c7" stroke="black" points="337.89,-187 334.89,-191 313.89,-191 310.89,-187 162.11,-187 162.11,-151 337.89,-151 337.89,-187"/>
<text text-anchor="middle" x="250" y="-164.8" font-family="Times,serif" font-size="14.00">MachineDetailsPageModule</text>
</g>
<!-- MachineDetailsPage&#45;&gt;MachineDetailsPageModule -->
<g id="edge1" class="edge">
<title>MachineDetailsPage&#45;&gt;MachineDetailsPageModule</title>
<path fill="none" stroke="black" d="M450,-122.11C450,-141.34 450,-169 450,-169 450,-169 347.72,-169 347.72,-169"/>
<polygon fill="black" stroke="black" points="347.72,-165.5 337.72,-169 347.72,-172.5 347.72,-165.5"/>
</g>
<!-- MachineDetailsPageRoutingModule -->
<g id="node3" class="node">
<title>MachineDetailsPageRoutingModule</title>
<polygon fill="#8dd3c7" stroke="black" points="360.01,-122 357.01,-126 336.01,-126 333.01,-122 139.99,-122 139.99,-86 360.01,-86 360.01,-122"/>
<text text-anchor="middle" x="250" y="-99.8" font-family="Times,serif" font-size="14.00">MachineDetailsPageRoutingModule</text>
</g>
<!-- MachineDetailsPageRoutingModule&#45;&gt;MachineDetailsPageModule -->
<g id="edge2" class="edge">
<title>MachineDetailsPageRoutingModule&#45;&gt;MachineDetailsPageModule</title>
<path fill="none" stroke="black" d="M250,-122.11C250,-122.11 250,-140.99 250,-140.99"/>
<polygon fill="black" stroke="black" points="246.5,-140.99 250,-150.99 253.5,-140.99 246.5,-140.99"/>
</g>
<!-- SharedModule -->
<g id="node4" class="node">
<title>SharedModule</title>
<polygon fill="#8dd3c7" stroke="black" points="122.42,-122 119.42,-126 98.42,-126 95.42,-122 23.58,-122 23.58,-86 122.42,-86 122.42,-122"/>
<text text-anchor="middle" x="73" y="-99.8" font-family="Times,serif" font-size="14.00">SharedModule</text>
</g>
<!-- SharedModule&#45;&gt;MachineDetailsPageModule -->
<g id="edge3" class="edge">
<title>SharedModule&#45;&gt;MachineDetailsPageModule</title>
<path fill="none" stroke="black" d="M73,-122.11C73,-141.34 73,-169 73,-169 73,-169 152.28,-169 152.28,-169"/>
<polygon fill="black" stroke="black" points="152.28,-172.5 162.28,-169 152.28,-165.5 152.28,-172.5"/>
</g>
</g>
</svg>
